<svg width="25" height="25" viewBox="0 0 25 25" fill="none" xmlns="http://www.w3.org/2000/svg">
<path fill-rule="evenodd" clip-rule="evenodd" d="M12.4995 21.6055C14.1254 21.6056 15.7209 21.1653 17.1166 20.3314C18.5123 19.4974 19.6561 18.3009 20.4263 16.8691C21.1965 15.4372 21.5645 13.8235 21.4911 12.1993C21.4177 10.575 20.9057 9.00103 20.0095 7.64447L12.8545 15.5945C12.5203 15.9659 12.0592 16.1988 11.5619 16.2472C11.0646 16.2957 10.5672 16.1563 10.1675 15.8565L6.89952 13.4055C6.68734 13.2463 6.54707 13.0094 6.50957 12.7469C6.47206 12.4843 6.54039 12.2176 6.69952 12.0055C6.85865 11.7933 7.09554 11.653 7.3581 11.6155C7.62065 11.578 7.88734 11.6463 8.09952 11.8055L11.3675 14.2565L18.7135 6.09547C17.6493 5.07958 16.3523 4.34007 14.936 3.94169C13.5197 3.54331 12.0274 3.49821 10.5896 3.81034C9.1519 4.12247 7.81259 4.78231 6.68899 5.73208C5.56539 6.68185 4.69176 7.8926 4.14459 9.25831C3.59743 10.624 3.39342 12.103 3.55042 13.5659C3.70742 15.0287 4.22064 16.4308 5.04516 17.6493C5.86967 18.8678 6.98033 19.8655 8.27989 20.5552C9.57945 21.2449 11.0283 21.6055 12.4995 21.6055Z" fill="#41C365"/>
</svg>
